<svg xmlns="http://www.w3.org/2000/svg" viewBox="0 0 100 100" fill="none">
  <rect width="100" height="100" rx="16" fill="#7b39ed"/>
  <path d="M30 62c-5.5 0-10-4.5-10-10 0-5 3.5-9.2 8.2-10C29 36.8 34 32 40 32c4 0 7.6 1.7 10.2 4.4C51.5 34.9 53.7 34 56 34c5.5 0 10 4.5 10 10 .1.3.1.7 0 1C68.3 45.5 70 48 70 51c0 6.1-4.9 11-11 11H30z" fill="white"/>
  <rect x="42" y="56" width="16" height="18" rx="2" fill="#7b39ed"/>
  <rect x="42" y="56" width="7" height="18" fill="#5c29b0"/>
  <rect x="44" y="60" width="5" height="5" rx="1" fill="white"/>
  <rect x="51" y="60" width="5" height="5" rx="1" fill="white"/>
</svg>
